<?xml version="1.0" encoding="UTF-8"?>
<svg version="1.1" xmlns="http://www.w3.org/2000/svg" width="512" height="512">
<path d="M0 0 C1.01790619 0.00215515 2.03581238 0.0043103 3.08456421 0.00653076 C17.69363523 0.05620146 32.02575853 0.30709809 46.375 3.3125 C47.34985352 3.51117676 48.32470703 3.70985352 49.32910156 3.91455078 C97.7109774 14.03517194 141.69928269 35.9516877 177.375 70.3125 C178.3640332 71.26068604 178.3640332 71.26068604 179.37304688 72.22802734 C188.86130305 81.37247479 197.6012044 90.66984009 205.375 101.3125 C206.23306152 102.46355017 207.09113451 103.61459177 207.94921875 104.765625 C213.98736829 112.95680614 219.34595521 121.47054105 224.375 130.3125 C224.73948242 130.94430176 225.10396484 131.57610352 225.47949219 132.22705078 C247.08534998 169.97532572 256.85198095 212.74189997 256.6875 255.9375 C256.68534485 256.95540619 256.6831897 257.97331238 256.68096924 259.02206421 C256.63129854 273.63113523 256.38040191 287.96325853 253.375 302.3125 C253.07698486 303.77478027 253.07698486 303.77478027 252.77294922 305.26660156 C242.65232806 353.6484774 220.7358123 397.63678269 186.375 433.3125 C185.74287598 433.97185547 185.11075195 434.63121094 184.45947266 435.31054688 C175.31502521 444.79880305 166.01765991 453.5387044 155.375 461.3125 C154.22394983 462.17056152 153.07290823 463.02863451 151.921875 463.88671875 C143.73224019 469.92427396 135.22961724 475.30707302 126.375 480.3125 C125.66778809 480.7146875 124.96057617 481.116875 124.23193359 481.53125 C101.09654164 494.5566741 75.92537591 503.30551461 49.9375 508.625 C49.21860596 508.77235596 48.49971191 508.91971191 47.7590332 509.0715332 C33.08339502 511.86090125 18.55831162 512.66142619 3.64770508 512.62817383 C0.70811513 512.6250221 -2.2304558 512.64854926 -5.16992188 512.67382812 C-18.54306192 512.71848737 -31.43916711 511.51301542 -44.625 509.3125 C-46.33055054 509.03031616 -46.33055054 509.03031616 -48.07055664 508.74243164 C-91.33802759 500.97044532 -132.38793216 480.98345309 -165.625 452.3125 C-166.37007813 451.67828125 -167.11515625 451.0440625 -167.8828125 450.390625 C-181.38779833 438.57948485 -194.05918743 425.82889772 -204.625 411.3125 C-205.48149066 410.16255169 -206.33826433 409.01281411 -207.1953125 407.86328125 C-213.23534209 399.67315742 -218.61867614 391.16870382 -223.625 382.3125 C-224.0271875 381.60528809 -224.429375 380.89807617 -224.84375 380.16943359 C-237.8691741 357.03404164 -246.61801461 331.86287591 -251.9375 305.875 C-252.08485596 305.15610596 -252.23221191 304.43721191 -252.3840332 303.6965332 C-255.35789088 288.05024391 -255.99800362 272.57681954 -255.9375 256.6875 C-255.93534485 255.66959381 -255.9331897 254.65168762 -255.93096924 253.60293579 C-255.88129854 238.99386477 -255.63040191 224.66174147 -252.625 210.3125 C-252.42632324 209.33764648 -252.22764648 208.36279297 -252.02294922 207.35839844 C-241.90232806 158.9765226 -219.9858123 114.98821731 -185.625 79.3125 C-184.99287598 78.65314453 -184.36075195 77.99378906 -183.70947266 77.31445312 C-174.56502521 67.82619695 -165.26765991 59.0862956 -154.625 51.3125 C-153.47394983 50.45443848 -152.32290823 49.59636549 -151.171875 48.73828125 C-142.98224019 42.70072604 -134.47961724 37.31792698 -125.625 32.3125 C-124.91778809 31.9103125 -124.21057617 31.508125 -123.48193359 31.09375 C-100.34654164 18.0683259 -75.17537591 9.31948539 -49.1875 4 C-48.46860596 3.85264404 -47.74971191 3.70528809 -47.0090332 3.5534668 C-31.36274391 0.57960912 -15.88931954 -0.06050362 0 0 Z " fill="#7E57C2" transform="translate(255.625,-0.3125)"/>
<path d="M0 0 C65.34 0 130.68 0 198 0 C198.03738281 18.03785156 198.07476562 36.07570313 198.11328125 54.66015625 C198.14354639 66.06706465 198.17454401 77.47396395 198.20898438 88.88085938 C198.22703443 94.87198827 198.24489839 100.86311767 198.26245117 106.85424805 C198.2657627 107.98057771 198.2657627 107.98057771 198.26914114 109.1296615 C198.30450727 121.25079281 198.32936782 133.37192406 198.35034702 145.49308784 C198.37211259 157.93346944 198.40517019 170.37378412 198.44870156 182.81410879 C198.47520528 190.48993262 198.49291006 198.16567306 198.49934604 205.84154039 C198.50522556 211.728249 198.52681886 217.61483427 198.55427551 223.50148392 C198.56307582 225.91575365 198.56677421 228.33004815 198.56500816 230.74433327 C198.56335866 234.03953813 198.58002803 237.33416243 198.60127258 240.62928772 C198.59642501 241.58552585 198.59157743 242.54176398 198.58658296 243.52697903 C198.5960395 244.41524866 198.60549604 245.30351829 198.61523914 246.21870518 C198.61713775 246.97852556 198.61903635 247.73834594 198.62099248 248.52119118 C199.02721147 251.87056997 199.02721147 251.87056997 202 258 C156.13 258 110.26 258 63 258 C64.98 254.37 66.96 250.74 69 247 C76.8292902 231.34141961 78.62168609 217.68159969 78.41162109 200.37988281 C78.37457729 197.21387232 78.37060649 194.04901946 78.37109375 190.8828125 C78.36127939 188.86457317 78.3496298 186.84634174 78.3359375 184.828125 C78.33371185 183.88447083 78.33148621 182.94081665 78.32919312 181.96856689 C78.31643341 181.09625427 78.30367371 180.22394165 78.29052734 179.32519531 C78.28290375 178.55991516 78.27528015 177.79463501 78.26742554 177.00616455 C78.10770845 174.68500956 78.10770845 174.68500956 76 172 C73.90126921 170.83863906 73.90126921 170.83863906 71.38598633 169.89941406 C70.42771439 169.51601868 69.46944244 169.13262329 68.48213196 168.73760986 C67.44259872 168.33435486 66.40306549 167.93109985 65.33203125 167.515625 C64.26385666 167.09577332 63.19568207 166.67592163 62.09513855 166.24334717 C59.83157094 165.35758852 57.56598749 164.47696694 55.29858398 163.60107422 C51.83655474 162.25932271 48.38609872 160.89048413 44.93554688 159.51953125 C42.73502869 158.66238241 40.53387613 157.80686004 38.33203125 156.953125 C37.30261917 156.54177307 36.27320709 156.13042114 35.21260071 155.706604 C27.87217923 152.91231296 22.83213855 152.61142159 15.44921875 155.62890625 C14.66869141 155.94150391 13.88816406 156.25410156 13.08398438 156.57617188 C12.29314453 156.90166016 11.50230469 157.22714844 10.6875 157.5625 C9.08842585 158.21256117 7.48821689 158.85983997 5.88671875 159.50390625 C5.18764404 159.79080322 4.48856934 160.0777002 3.76831055 160.37329102 C2 161 2 161 0 161 C0 107.87 0 54.74 0 0 Z " fill="#FDFDFD" transform="translate(154,116)"/>
<path d="M0 0 C0.91900085 0.34897842 1.83800171 0.69795685 2.78485107 1.05751038 C4.71894549 1.7936441 6.65197241 2.53258794 8.58398438 3.27416992 C11.54769411 4.4104703 14.5157201 5.53489513 17.484375 6.65820312 C19.36485289 7.37559589 21.24507057 8.09367121 23.125 8.8125 C24.45933075 9.31728127 24.45933075 9.31728127 25.82061768 9.83226013 C26.64197205 10.14921341 27.46332642 10.46616669 28.30957031 10.79272461 C29.03315735 11.06950546 29.75674438 11.34628632 30.5022583 11.63145447 C32.296875 12.47265625 32.296875 12.47265625 34.296875 14.47265625 C34.50966321 17.095531 34.60083748 19.60971724 34.59765625 22.234375 C34.60194138 23.01722366 34.6062265 23.80007233 34.61064148 24.60664368 C34.61639684 26.27364131 34.61687621 27.94066406 34.61254883 29.60766602 C34.60944303 32.10544741 34.63263859 34.60197944 34.65820312 37.09960938 C34.75706527 61.81052565 27.90324226 82.56736935 10.296875 100.47265625 C9.60980469 101.17261719 8.92273438 101.87257813 8.21484375 102.59375 C3.88769663 106.71216646 -0.79583563 110.01497099 -5.890625 113.09765625 C-6.47287842 113.4652002 -7.05513184 113.83274414 -7.6550293 114.21142578 C-10.68014968 115.95273138 -12.30132553 116.54687399 -15.76953125 115.90625 C-35.36158506 106.33197071 -50.03912919 89.89691044 -57.42333984 69.48144531 C-61.18260396 58.0100552 -61.9690734 47.31339527 -62.05322266 35.37670898 C-62.06987713 33.64350039 -62.09729002 31.91036304 -62.13525391 30.17749023 C-62.18984586 27.66744731 -62.21185446 25.15899276 -62.2265625 22.6484375 C-62.24923187 21.87341385 -62.27190125 21.0983902 -62.29525757 20.29988098 C-62.28662109 18.11450195 -62.28662109 18.11450195 -61.703125 14.47265625 C-59.68212891 12.66699219 -59.68212891 12.66699219 -56.703125 11.47265625 C-56.10648041 11.21989426 -55.50983582 10.96713226 -54.89511108 10.70671082 C-52.78294239 9.82559326 -50.65396652 9.00296066 -48.515625 8.1875 C-47.73550049 7.88574356 -46.95537598 7.58398712 -46.15161133 7.27308655 C-43.67043379 6.31442862 -41.18686256 5.36215927 -38.703125 4.41015625 C-37.03368794 3.76670714 -35.36441534 3.1228312 -33.6953125 2.47851562 C-25.71081883 -0.60317586 -25.71081883 -0.60317586 -22.48974609 -1.82180786 C-20.98912188 -2.41440371 -19.52223099 -3.09143932 -18.06640625 -3.78686523 C-12.04194211 -5.67448918 -5.6115134 -2.1552389 0 0 Z " fill="#FDFDFD" transform="translate(192.703125,279.52734375)"/>
<path d="M0 0 C7.26 0 14.52 0 22 0 C22.09257186 25.06041908 22.16396615 50.12079701 22.20724869 75.18135262 C22.22787915 86.81724999 22.25600912 98.45303922 22.30175781 110.08886719 C22.34161061 120.22994841 22.36742929 130.37095132 22.37635398 140.51210868 C22.38157133 145.88243992 22.39384429 151.25254709 22.42292023 156.62280655 C22.45006459 161.6772463 22.45844691 166.73136961 22.45243073 171.78587532 C22.45353139 173.64103858 22.46149106 175.4962124 22.4768219 177.35131264 C22.49673469 179.88507914 22.49193483 182.4176522 22.48101807 184.95144653 C22.49266943 185.68492251 22.5043208 186.41839848 22.51632524 187.174101 C22.4574091 192.23586544 21.15645121 195.08643527 18 199 C14.58449489 201.59107284 11.16674536 201.50288306 7 201 C3.52434481 198.98287868 1.29546488 196.88639464 0 193 C-0.09353478 190.42818822 -0.13034728 187.88392314 -0.12025452 185.31221008 C-0.12110894 184.5215212 -0.12196337 183.73083232 -0.12284368 182.91618317 C-0.12449497 180.25830828 -0.11898283 177.60049606 -0.11352539 174.94262695 C-0.11324342 173.04073081 -0.11340145 171.13883456 -0.1139679 169.23693848 C-0.11425547 164.06578395 -0.10836511 158.8946525 -0.10139394 153.72350335 C-0.09515384 148.32227714 -0.09455608 142.92105043 -0.09336853 137.51982117 C-0.09025716 127.28824301 -0.08204637 117.0566755 -0.07201904 106.82510203 C-0.0608519 95.17833892 -0.05534594 83.53157531 -0.05032361 71.88480818 C-0.0398636 47.92319934 -0.02206708 23.96160072 0 0 Z " fill="#FEFDFD" transform="translate(359,173)"/>
<path d="M0 0 C51.48 0 102.96 0 156 0 C156 6.6 156 13.2 156 20 C104.52 20 53.04 20 0 20 C0 13.4 0 6.8 0 0 Z " fill="#FFFFFE" transform="translate(175,146)"/>
<path d="M0 0 C5.86645528 2.5637753 10.11444117 6.94692814 12.8671875 12.69921875 C14.09274423 16.42005314 14.18010626 20.01691637 14.390625 23.90625 C14.51177834 26.51003562 14.51177834 26.51003562 16.734375 28.33203125 C17.15732626 32.71295328 17.10596768 37.10879663 17.10498047 41.5078125 C17.10934537 43.69220414 17.14563201 45.874561 17.18359375 48.05859375 C17.1894637 49.44921185 17.1934319 50.83983954 17.1953125 52.23046875 C17.20353027 53.49552246 17.21174805 54.76057617 17.22021484 56.06396484 C16.734375 59.33203125 16.734375 59.33203125 15.26806641 61.74267578 C11.49210678 64.11129181 8.11038484 63.90537438 3.734375 63.86328125 C2.86167969 63.86710815 1.98898438 63.87093506 1.08984375 63.87487793 C-0.75261592 63.87759615 -2.59511424 63.87024119 -4.4375 63.85351562 C-7.25608434 63.83210373 -10.07211985 63.85331926 -12.890625 63.87890625 C-14.68229729 63.87626296 -16.47396799 63.87113794 -18.265625 63.86328125 C-19.52826172 63.87542664 -19.52826172 63.87542664 -20.81640625 63.88781738 C-24.47727431 63.82921204 -26.6528778 63.71726599 -29.79711914 61.74047852 C-31.79845757 58.4581504 -31.76736265 56.09930375 -31.76171875 52.265625 C-31.76317398 51.59032242 -31.76462921 50.91501984 -31.76612854 50.21925354 C-31.7644732 48.79627147 -31.75295252 47.37327083 -31.73217773 45.95043945 C-31.70316891 43.77282782 -31.71158384 41.59764449 -31.72460938 39.41992188 C-31.71837295 38.03514443 -31.70998274 36.65037465 -31.69921875 35.265625 C-31.68947021 34.00806396 -31.67972168 32.75050293 -31.66967773 31.45483398 C-31.23296087 28.07957994 -30.79034521 27.4132028 -28.265625 25.33203125 C-27.87109151 22.6338541 -27.87109151 22.6338541 -27.890625 19.64453125 C-27.42372317 12.47672357 -25.54351612 8.39929483 -20.3203125 3.51171875 C-13.97875455 -1.3751449 -7.67093891 -2.2616044 0 0 Z " fill="#825DC4" transform="translate(186.265625,296.66796875)"/>
<path d="M0 0 C1.00522375 -0.00701996 1.00522375 -0.00701996 2.03075504 -0.01418173 C4.28103871 -0.02616795 6.53071744 -0.01666083 8.78100586 -0.00723267 C10.39232744 -0.01129678 12.00364623 -0.01663775 13.61495972 -0.02316284 C17.99507835 -0.03686144 22.37498545 -0.03152736 26.75510788 -0.02202559 C31.33414032 -0.01444213 35.91315437 -0.02147093 40.4921875 -0.02618408 C48.18256896 -0.03164548 55.87286406 -0.02443997 63.56323242 -0.01016235 C72.4604729 0.00616491 81.35750715 0.00087667 90.25474262 -0.01564157 C97.88707656 -0.02924552 105.51934834 -0.03118145 113.15169048 -0.02332556 C117.71306935 -0.01864303 122.27435121 -0.01804007 126.83572388 -0.02793503 C131.12360435 -0.03658658 135.41121836 -0.03061612 139.69906998 -0.01325226 C141.27488894 -0.00927769 142.85073023 -0.01043799 144.42654037 -0.01704025 C146.57356508 -0.02520795 148.7197297 -0.01499331 150.86669922 0 C152.06942978 0.00113108 153.27216034 0.00226215 154.51133728 0.00342751 C157.43334961 0.38095093 157.43334961 0.38095093 159.31950378 1.72580528 C161.0623442 4.31562037 160.82261575 6.60838048 160.83178711 9.69345093 C160.8356543 10.93352905 160.83952148 12.17360718 160.84350586 13.45126343 C160.82610352 15.39645874 160.82610352 15.39645874 160.80834961 17.38095093 C160.81995117 18.6777478 160.83155273 19.97454468 160.84350586 21.31063843 C160.83963867 22.55071655 160.83577148 23.79079468 160.83178711 25.06845093 C160.82840332 26.20669312 160.82501953 27.3449353 160.8215332 28.51766968 C160.43334961 31.38095093 160.43334961 31.38095093 159.31950378 33.03609657 C156.51969651 35.03239839 154.28154522 34.75869045 150.86669922 34.76190186 C149.86147547 34.76892181 149.86147547 34.76892181 148.83594418 34.77608359 C146.58566051 34.78806981 144.33598178 34.77856269 142.08569336 34.76913452 C140.47437178 34.77319863 138.86305299 34.77853961 137.2517395 34.7850647 C132.87162087 34.79876329 128.49171376 34.79342921 124.11159134 34.78392744 C119.5325589 34.77634399 114.95354485 34.78337279 110.37451172 34.78808594 C102.68413025 34.79354733 94.99383516 34.78634183 87.3034668 34.77206421 C78.40622632 34.75573695 69.50919207 34.76102519 60.6119566 34.77754343 C52.97962266 34.79114738 45.34735088 34.7930833 37.71500874 34.78522742 C33.15362987 34.78054489 28.59234801 34.77994193 24.03097534 34.78983688 C19.74309487 34.79848844 15.45548086 34.79251798 11.16762924 34.77515411 C9.59181028 34.77117955 8.01596898 34.77233984 6.44015884 34.77894211 C4.29313414 34.78710981 2.14696952 34.77689517 0 34.76190186 C-1.20273056 34.76077078 -2.40546112 34.7596397 -3.64463806 34.75847435 C-6.56665039 34.38095093 -6.56665039 34.38095093 -8.45280457 33.03609657 C-10.19564498 30.44628149 -9.95591653 28.15352138 -9.96508789 25.06845093 C-9.96895508 23.8283728 -9.97282227 22.58829468 -9.97680664 21.31063843 C-9.96520508 20.01384155 -9.95360352 18.71704468 -9.94165039 17.38095093 C-9.95325195 16.08415405 -9.96485352 14.78735718 -9.97680664 13.45126343 C-9.97293945 12.2111853 -9.96907227 10.97110718 -9.96508789 9.69345093 C-9.9617041 8.55520874 -9.95832031 7.41696655 -9.95483398 6.24423218 C-9.56665039 3.38095093 -9.56665039 3.38095093 -8.45280457 1.72580528 C-5.6529973 -0.27049653 -3.414846 0.0032114 0 0 Z M-2.56665039 7.38095093 C-2.56665039 13.98095093 -2.56665039 20.58095093 -2.56665039 27.38095093 C48.91334961 27.38095093 100.39334961 27.38095093 153.43334961 27.38095093 C153.43334961 20.78095093 153.43334961 14.18095093 153.43334961 7.38095093 C101.95334961 7.38095093 50.47334961 7.38095093 -2.56665039 7.38095093 Z " fill="#8662C5" transform="translate(177.566650390625,138.61904907226563)"/>
<path d="M0 0 C0.96385117 -0.00145523 1.92770233 -0.00291046 2.92076111 -0.00440979 C4.95574979 -0.00275153 6.9907511 0.0088015 9.02563477 0.02954102 C12.14458293 0.05852164 15.26183422 0.05014323 18.38085938 0.03710938 C20.35808119 0.04334604 22.33529764 0.05173641 24.3125 0.0625 C25.71412132 0.05809654 25.71412132 0.05809654 27.14405823 0.05360413 C28.01183395 0.0662883 28.87960968 0.07897247 29.77368164 0.09204102 C30.53661026 0.097444 31.29953888 0.10284698 32.08558655 0.1084137 C34.6370226 0.60193362 35.52918694 1.44880336 37.08984375 3.49609375 C37.74218424 7.94501648 37.55292851 12.4423051 37.52734375 16.93359375 C37.55731445 18.79467773 37.55731445 18.79467773 37.58789062 20.69335938 C37.58724609 21.88509766 37.58660156 23.07683594 37.5859375 24.3046875 C37.58871704 25.94135376 37.58871704 25.94135376 37.59155273 27.61108398 C37.08984375 30.49609375 37.08984375 30.49609375 35.66235352 32.84985352 C31.72013334 35.37262002 28.02278777 35.06829505 23.43359375 35.02734375 C22.4943103 35.03117065 21.55502686 35.03499756 20.58728027 35.03894043 C18.60358609 35.04165951 16.61985605 35.03429859 14.63623047 35.01757812 C11.60042359 34.99616836 8.56698329 35.01737982 5.53125 35.04296875 C3.60285936 35.04032547 1.67447019 35.0352005 -0.25390625 35.02734375 C-1.61497498 35.03948914 -1.61497498 35.03948914 -3.00354004 35.05187988 C-6.85562611 34.99458278 -9.19825164 34.95645152 -12.48046875 32.83398438 C-14.28014122 29.89107735 -14.42651467 28.00067698 -14.44140625 24.55859375 C-14.4465625 23.41648438 -14.45171875 22.274375 -14.45703125 21.09765625 C-14.4415625 19.90914062 -14.42609375 18.720625 -14.41015625 17.49609375 C-14.425625 16.30757812 -14.44109375 15.1190625 -14.45703125 13.89453125 C-14.451875 12.75242188 -14.44671875 11.6103125 -14.44140625 10.43359375 C-14.43689453 9.39074219 -14.43238281 8.34789062 -14.42773438 7.2734375 C-13.91015625 4.49609375 -13.91015625 4.49609375 -12.49633789 2.15600586 C-8.4880019 -0.4167003 -4.66691678 -0.05622974 0 0 Z " fill="#815CC3" transform="translate(300.91015625,221.50390625)"/>
<path d="M0 0 C0.67731299 -0.00226556 1.35462597 -0.00453111 2.05246359 -0.00686532 C4.33874942 -0.01323269 6.62497639 -0.01237422 8.91127014 -0.0115509 C10.54362058 -0.01454069 12.17597031 -0.0179428 13.80831909 -0.02172852 C18.25453712 -0.03059103 22.70073592 -0.03290757 27.14696193 -0.0335443 C30.85245009 -0.03449151 34.55793373 -0.03816763 38.26342016 -0.0417164 C47.00215893 -0.04986949 55.74088739 -0.05229985 64.47962952 -0.05158997 C73.50858732 -0.05098892 82.53748543 -0.06154412 91.56642812 -0.07733363 C99.30569648 -0.09038792 107.04494528 -0.09577476 114.78422457 -0.09513456 C119.41209894 -0.09487895 124.03992029 -0.09776454 128.66778374 -0.10831261 C133.01876939 -0.1179582 137.36965097 -0.11809726 141.72064018 -0.11079597 C143.32107189 -0.10974571 144.92150996 -0.11213901 146.52193069 -0.11815643 C148.69988485 -0.12581735 150.87747423 -0.12127127 153.05541992 -0.11352539 C154.2764186 -0.11407016 155.49741728 -0.11461493 156.75541592 -0.1151762 C159.59120178 0.13371277 159.59120178 0.13371277 161.59120178 2.13371277 C161.0554875 5.66942705 161.0554875 5.66942705 159.59120178 7.13371277 C157.45687395 7.23502409 155.31913254 7.26449193 153.18240356 7.26742554 C152.16643409 7.27082387 152.16643409 7.27082387 151.12993997 7.27429086 C148.84365414 7.28065822 146.55742718 7.27979976 144.27113342 7.27897644 C142.63878299 7.28196623 141.00643326 7.28536833 139.37408447 7.28915405 C134.92786645 7.29801657 130.48166764 7.30033311 126.03544164 7.30096984 C122.32995347 7.30191705 118.62446983 7.30559317 114.9189834 7.30914193 C106.18024463 7.31729503 97.44151618 7.31972539 88.70277405 7.3190155 C79.67381624 7.31841446 70.64491813 7.32896965 61.61597544 7.34475917 C53.87670708 7.35781346 46.13745829 7.36320029 38.39817899 7.36256009 C33.77030463 7.36230448 29.14248328 7.36519008 24.51461983 7.37573814 C20.16363417 7.38538373 15.8127526 7.3855228 11.46176338 7.37822151 C9.86133168 7.37717124 8.26089361 7.37956455 6.66047287 7.38558197 C4.48251872 7.39324289 2.30492934 7.3886968 0.12698364 7.38095093 C-1.09401504 7.3814957 -2.31501371 7.38204046 -3.57301235 7.38260174 C-6.40879822 7.13371277 -6.40879822 7.13371277 -8.40879822 5.13371277 C-7.53838052 -0.61104406 -5.43401253 0.00746059 0 0 Z " fill="#8662C6" transform="translate(176.40879821777344,193.8662872314453)"/>
<path d="M0 0 C11.22 0 22.44 0 34 0 C34 8.25 34 16.5 34 25 C22.78 25 11.56 25 0 25 C0 16.75 0 8.5 0 0 Z " fill="#FCFCFD" transform="translate(162,328)"/>
<path d="M0 0 C12.54 0 25.08 0 38 0 C38 6.93 38 13.86 38 21 C25.46 21 12.92 21 0 21 C0 14.07 0 7.14 0 0 Z " fill="#FAF9FB" transform="translate(294,229)"/>
<path d="M0 0 C1.29771332 -0.00639748 1.29771332 -0.00639748 2.62164307 -0.01292419 C3.57803177 -0.01247101 4.53442047 -0.01201782 5.51979065 -0.0115509 C7.02211746 -0.01658882 7.02211746 -0.01658882 8.55479431 -0.02172852 C11.88371502 -0.03127021 15.21258561 -0.03318322 18.54151917 -0.03425598 C20.84458436 -0.03746627 23.14764935 -0.04083016 25.45071411 -0.04434204 C30.28543063 -0.05034134 35.12012926 -0.05218112 39.95484924 -0.05158997 C46.16390583 -0.05148828 52.37284821 -0.06514313 58.58187771 -0.08236217 C63.34037813 -0.09345564 68.09885071 -0.09551 72.85736275 -0.09498024 C75.14719601 -0.09616427 77.4370299 -0.10060954 79.72685051 -0.10831261 C82.92353799 -0.11805931 86.11997452 -0.1152556 89.31666565 -0.10920715 C90.27103012 -0.11482666 91.22539459 -0.12044617 92.2086792 -0.12623596 C93.07664124 -0.12204147 93.94460327 -0.11784698 94.83886719 -0.11352539 C95.5952822 -0.11407016 96.35169722 -0.11461493 97.1310339 -0.1151762 C98.98292542 0.13371277 98.98292542 0.13371277 100.98292542 2.13371277 C100.44721113 5.66942705 100.44721113 5.66942705 98.98292542 7.13371277 C97.64686408 7.23328316 96.30561399 7.2644558 94.96585083 7.26742554 C94.10070862 7.27169052 93.23556641 7.27595551 92.34420776 7.28034973 C91.38781906 7.27989655 90.43143036 7.27944336 89.44606018 7.27897644 C87.94373337 7.28401436 87.94373337 7.28401436 86.41105652 7.28915405 C83.08213581 7.29869574 79.75326522 7.30060876 76.42433167 7.30168152 C74.12126647 7.30489181 71.81820148 7.3082557 69.51513672 7.31176758 C64.6804202 7.31776687 59.84572157 7.31960665 55.01100159 7.3190155 C48.801945 7.31891382 42.59300262 7.33256867 36.38397312 7.34978771 C31.6254727 7.36088117 26.86700012 7.36293553 22.10848808 7.36240578 C19.81865482 7.36358981 17.52882093 7.36803507 15.23900032 7.37573814 C12.04231284 7.38548485 8.84587631 7.38268113 5.64918518 7.37663269 C4.69482071 7.3822522 3.74045624 7.3878717 2.75717163 7.3936615 C1.88920959 7.38946701 1.02124756 7.38527252 0.12698364 7.38095093 C-0.62943137 7.3814957 -1.38584639 7.38204046 -2.16518307 7.38260174 C-4.01707458 7.13371277 -4.01707458 7.13371277 -6.01707458 5.13371277 C-5.32953859 0.5959752 -4.42908176 0.00981756 0 0 Z " fill="#8662C6" transform="translate(237.01707458496094,272.8662872314453)"/>
<path d="M0 0 C1.35513954 0.00539291 1.35513954 0.00539291 2.73765564 0.01089478 C3.68389801 0.01074875 4.63014038 0.01060272 5.60505676 0.01045227 C8.74880729 0.0111518 11.89249938 0.01894608 15.03623962 0.02676392 C17.20957405 0.02862795 19.3829089 0.03005192 21.5562439 0.03105164 C27.28884533 0.03487795 33.0214216 0.0447092 38.75401306 0.05575562 C44.59873616 0.0659673 50.44346331 0.07054873 56.28819275 0.07559204 C67.76541737 0.08633137 79.24262328 0.10340915 90.71983337 0.12442017 C91.34483337 2.49942017 91.34483337 2.49942017 91.71983337 5.12442017 C89.04857758 7.79567596 87.03322351 7.37011271 83.40092468 7.39547729 C82.51358643 7.39142883 81.62624817 7.38738037 80.71202087 7.38320923 C79.31188751 7.38846619 79.31188751 7.38846619 77.88346863 7.39382935 C74.787182 7.40265719 71.69112246 7.39679378 68.59483337 7.39004517 C66.45013892 7.39139151 64.30544475 7.39333179 62.16075134 7.39584351 C57.66153564 7.3987962 53.16239925 7.39449245 48.66319275 7.38516235 C42.88573393 7.37376777 37.10846091 7.38032647 31.33100891 7.39230728 C26.90105276 7.39952195 22.47114093 7.39723976 18.04118347 7.3920517 C15.91044595 7.39071411 13.77970444 7.3923667 11.64897156 7.3970108 C8.67508736 7.40206957 5.70150732 7.39437493 2.72764587 7.38320923 C1.84030762 7.38725769 0.95296936 7.39130615 0.03874207 7.39547729 C-6.05163903 7.35294776 -6.05163903 7.35294776 -8.28016663 5.12442017 C-7.4210033 -0.54605778 -5.40429423 0.00908704 0 0 Z " fill="#8662C6" transform="translate(246.28016662597656,344.8755798339844)"/>
<path d="M0 0 C1.26626976 0.00303635 1.26626976 0.00303635 2.55812073 0.00613403 C3.88488327 0.00350555 3.88488327 0.00350555 5.2384491 0.00082397 C8.17778963 -0.0035963 11.11707054 -0.00065569 14.05641174 0.00271606 C16.09043387 0.00204302 18.12445593 0.00107298 20.15847778 -0.00018311 C24.42825585 -0.00166037 28.69801305 0.00049516 32.9677887 0.00515747 C38.4504052 0.01085116 43.93297272 0.00757821 49.41558743 0.00158501 C53.61820853 -0.00202293 57.82081796 -0.00088088 62.02343941 0.0017128 C64.04532438 0.00238161 66.06721041 0.00155523 68.08909416 -0.00076675 C70.9121317 -0.00329667 73.73508918 0.00055232 76.55812073 0.00613403 C77.40027634 0.0041098 78.24243195 0.00208557 79.11010742 0 C84.89429163 0.02126538 84.89429163 0.02126538 87.12281799 1.13552856 C86.24781799 6.01052856 86.24781799 6.01052856 85.12281799 7.13552856 C82.30315857 7.24138947 79.50786279 7.2823063 76.68751526 7.28079224 C75.8030069 7.28415085 74.91849854 7.28750946 74.00718689 7.29096985 C71.06785193 7.30050999 68.12857374 7.30242448 65.18922424 7.30349731 C63.15520198 7.30670773 61.12117996 7.31007164 59.0871582 7.31358337 C54.81738245 7.3195823 50.54762696 7.32142249 46.27784729 7.3208313 C40.79519437 7.32072963 35.3126708 7.33438383 29.83004856 7.35160351 C25.62742511 7.36269884 21.42483318 7.36475127 17.22219658 7.36422157 C15.20030712 7.36540535 13.17841695 7.36984919 11.15654182 7.37755394 C8.33343969 7.38730435 5.51062155 7.3844955 2.68751526 7.37844849 C1.84535965 7.38406799 1.00320404 7.3896875 0.13552856 7.39547729 C-5.64886669 7.36384388 -5.64886669 7.36384388 -7.87718201 5.13552856 C-7.04557613 -0.35307024 -5.26502209 0.01942813 0 0 Z " fill="#8560C5" transform="translate(250.87718200683594,320.8644714355469)"/>
<path d="M0 0 C1.26626976 0.00067978 1.26626976 0.00067978 2.55812073 0.00137329 C3.44262909 -0.00198532 4.32713745 -0.00534393 5.2384491 -0.00880432 C8.17778406 -0.01834447 11.11706224 -0.02025895 14.05641174 -0.02133179 C16.090434 -0.02454221 18.12445602 -0.02790611 20.15847778 -0.03141785 C24.42825354 -0.03741677 28.69800902 -0.03925696 32.9677887 -0.03866577 C38.45044162 -0.0385641 43.93296519 -0.05221831 49.41558743 -0.06943798 C53.61821087 -0.08053331 57.82080281 -0.08258574 62.02343941 -0.08205605 C64.04532886 -0.08323982 66.06721904 -0.08768366 68.08909416 -0.09538841 C70.9121963 -0.10513882 73.73501444 -0.10232997 76.55812073 -0.09628296 C77.40027634 -0.10190247 78.24243195 -0.10752197 79.11010742 -0.11331177 C84.89450267 -0.08167836 84.89450267 -0.08167836 87.12281799 2.14663696 C86.58710371 5.68235125 86.58710371 5.68235125 85.12281799 7.14663696 C82.30315857 7.25249786 79.50786279 7.2934147 76.68751526 7.29190063 C75.8030069 7.29525925 74.91849854 7.29861786 74.00718689 7.30207825 C71.06785193 7.31161839 68.12857374 7.31353288 65.18922424 7.31460571 C63.15520198 7.31781613 61.12117996 7.32118003 59.0871582 7.32469177 C54.81738245 7.3306907 50.54762696 7.33253089 46.27784729 7.3319397 C40.79519437 7.33183802 35.3126708 7.34549223 29.83004856 7.36271191 C25.62742511 7.37380724 21.42483318 7.37585967 17.22219658 7.37532997 C15.20030712 7.37651375 13.17841695 7.38095759 11.15654182 7.38866234 C8.33343969 7.39841274 5.51062155 7.3956039 2.68751526 7.38955688 C1.84535965 7.39517639 1.00320404 7.4007959 0.13552856 7.40658569 C-5.64886669 7.37495228 -5.64886669 7.37495228 -7.87718201 5.14663696 C-7.04587874 -0.33996459 -5.2638997 0.02937878 0 0 Z " fill="#8662C6" transform="translate(250.87718200683594,296.8533630371094)"/>
<path d="M0 0 C35.31 0 70.62 0 107 0 C107 1.65 107 3.3 107 5 C105.46138346 6.53861654 104.05112042 6.12905102 101.90699768 6.13371277 C100.5840419 6.14011024 100.5840419 6.14011024 99.23435974 6.14663696 C98.25926956 6.14618378 97.28417938 6.14573059 96.27954102 6.14526367 C95.25848267 6.14862228 94.23742432 6.1519809 93.1854248 6.15544128 C89.7915731 6.1649832 86.39777055 6.166896 83.00390625 6.16796875 C80.65600056 6.17117902 78.30809508 6.17454291 75.96018982 6.17805481 C71.03131649 6.18405416 66.10246071 6.18589388 61.17358398 6.18530273 C54.84345998 6.18520105 48.51344799 6.19885599 42.18335056 6.21607494 C37.33220396 6.22716814 32.48108467 6.22922277 27.62992668 6.22869301 C25.29543611 6.22987708 22.96094492 6.23432255 20.62646675 6.24202538 C17.3675148 6.25177154 14.10880904 6.24896857 10.84985352 6.24291992 C9.39025459 6.25134918 9.39025459 6.25134918 7.90116882 6.25994873 C7.01637848 6.25575424 6.13158813 6.25155975 5.21998596 6.24723816 C4.44882226 6.24778293 3.67765856 6.24832769 2.88312626 6.24888897 C1 6 1 6 -1 4 C-0.67 2.68 -0.34 1.36 0 0 Z " fill="#7E57C2" transform="translate(169,250)"/>
<path d="M0 0 C1.32295578 -0.00639748 1.32295578 -0.00639748 2.67263794 -0.01292419 C4.13527321 -0.01224442 4.13527321 -0.01224442 5.62745667 -0.0115509 C6.64851501 -0.01490952 7.66957336 -0.01826813 8.72157288 -0.02172852 C12.11542458 -0.03127043 15.50922713 -0.03318323 18.90309143 -0.03425598 C21.25099712 -0.03746625 23.5989026 -0.04083014 25.94680786 -0.04434204 C30.87568119 -0.05034139 35.80453697 -0.05218111 40.7334137 -0.05158997 C47.0635377 -0.05148828 53.39354969 -0.06514322 59.72364712 -0.08236217 C64.57479372 -0.09345537 69.42591301 -0.09551 74.277071 -0.09498024 C76.61156157 -0.09616431 78.94605276 -0.10060978 81.28053093 -0.10831261 C84.53948288 -0.11805878 87.79818865 -0.1152558 91.05714417 -0.10920715 C92.03021011 -0.11482666 93.00327606 -0.12044617 94.00582886 -0.12623596 C94.8906192 -0.12204147 95.77540955 -0.11784698 96.68701172 -0.11352539 C97.45817542 -0.11407016 98.22933912 -0.11461493 99.02387142 -0.1151762 C100.90699768 0.13371277 100.90699768 0.13371277 102.90699768 2.13371277 C102.57699768 3.45371277 102.24699768 4.77371277 101.90699768 6.13371277 C66.59699768 6.13371277 31.28699768 6.13371277 -5.09300232 6.13371277 C-5.09300232 0.0110732 -5.09300232 0.0110732 0 0 Z " fill="#7E57C2" transform="translate(174.09300231933594,221.8662872314453)"/>
<path d="M0 0 C3.60394506 2.59819295 4.96896104 4.83944555 6.6875 8.9375 C6.6875 11.9075 6.6875 14.8775 6.6875 17.9375 C-2.5525 17.9375 -11.7925 17.9375 -21.3125 17.9375 C-21.3125 7.34290541 -21.3125 7.34290541 -17.3125 1.9375 C-12.30950155 -2.4937272 -6.03293476 -1.93509228 0 0 Z " fill="#F8F7FB" transform="translate(186.3125,304.0625)"/>
<path d="M0 0 C1.32 0.33 2.64 0.66 4 1 C4 4.63 4 8.26 4 12 C2.35 12.33 0.7 12.66 -1 13 C-2.66561399 11.33438601 -2.17115945 9.34037295 -2.1875 7.0625 C-2.20167969 6.16660156 -2.21585938 5.27070313 -2.23046875 4.34765625 C-2 2 -2 2 0 0 Z " fill="#845FC5" transform="translate(178,334)"/>
</svg>
