<?xml version="1.0" encoding="UTF-8"?>
<svg version="1.1" xmlns="http://www.w3.org/2000/svg" width="512" height="512">
<path d="M0 0 C3.46100899 1.77015703 6.82784814 3.67660073 10.17993164 5.64404297 C10.89745605 6.0557373 11.61498047 6.46743164 12.35424805 6.89160156 C14.5183466 8.14140106 16.66464153 9.41644371 18.80493164 10.70654297 C19.4556665 11.09310059 20.10640137 11.4796582 20.77685547 11.87792969 C26.74094109 15.61022798 32.13220107 20.79256385 34.71899414 27.48779297 C36.11809252 34.03272775 35.6750515 41.15715196 34.17993164 47.64404297 C44.23047126 52.01580235 54.26897959 55.41132219 64.94750977 57.88769531 C67.39396365 58.46013596 69.83311921 59.05010475 72.27172852 59.65429688 C76.11450178 60.60142845 79.96749077 61.49299666 83.82971191 62.35720825 C85.38218124 62.71182166 86.93131055 63.08142839 88.47644043 63.46676636 C97.35395691 65.86021232 97.35395691 65.86021232 106.16040039 64.42724609 C107.94642818 63.21237786 109.69327489 61.93814391 111.39892578 60.61279297 C116.67470455 56.87792509 123.02825034 55.4156798 129.17993164 53.64404297 C130.2015036 53.34518188 130.2015036 53.34518188 131.24371338 53.0402832 C135.50523571 51.80001629 139.78014924 50.61912082 144.06884766 49.4765625 C146.24814612 48.89251149 148.42180226 48.28992383 150.59594727 47.68701172 C170.69149042 42.23700763 186.13902117 44.26339112 205.24633789 52.12060547 C217.31656676 56.9785527 227.91271409 53.81306933 239.49243164 48.89404297 C240.37930664 48.48154297 241.26618164 48.06904297 242.17993164 47.64404297 C242.02137695 46.94794922 241.86282227 46.25185547 241.69946289 45.53466797 C240.1060062 36.66881869 240.31479531 28.362164 245.17993164 20.64404297 C250.43787464 13.99147151 257.45583216 10.3002272 264.80493164 6.33154297 C266.48329102 5.40245117 266.48329102 5.40245117 268.19555664 4.45458984 C278.01906716 -0.94365191 286.43029011 -4.83758051 297.85180664 -1.59814453 C304.80762303 1.36624702 309.24912903 5.18148905 313.05493164 11.76904297 C313.42730957 12.40737061 313.7996875 13.04569824 314.18334961 13.70336914 C315.52562688 16.0112235 316.85224814 18.32776382 318.17993164 20.64404297 C319.30938753 22.5963014 320.439647 24.54809506 321.57055664 26.49951172 C324.79270636 32.06644646 328.00192077 37.64073982 331.20825195 43.21679688 C334.360184 48.695601 337.52037509 54.16963356 340.67993164 59.64404297 C341.92605347 61.80418302 343.17214715 63.96433931 344.41821289 66.12451172 C346.95609157 70.52363372 349.49529747 74.92198618 352.03540039 79.31982422 C355.1566424 84.72430326 358.27449929 90.13072172 361.38989258 95.53857422 C362.58212541 97.60693232 363.77548301 99.6746425 364.9699707 101.74169922 C366.6472483 104.64485978 368.32034057 107.55039295 369.99243164 110.45654297 C370.49025146 111.31610596 370.98807129 112.17566895 371.50097656 113.0612793 C376.64824292 122.02932783 379.15326033 129.7743609 376.52758789 140.24560547 C372.29835788 150.80960488 362.95021131 156.02196974 353.49243164 161.45654297 C352.38448242 162.12363281 351.2765332 162.79072266 350.13500977 163.47802734 C341.66895147 168.38151289 333.33773266 171.68411137 323.42993164 170.08154297 C318.80762622 168.80177899 315.09502852 166.33860605 311.17993164 163.64404297 C310.51993164 163.31404297 309.85993164 162.98404297 309.17993164 162.64404297 C307.18814907 165.36098909 305.20397592 168.08264699 303.23461914 170.81591797 C302.07805272 172.4078459 300.9068171 173.99008338 299.68774414 175.53466797 C298.39970711 177.13597986 298.39970711 177.13597986 297.17993164 179.64404297 C297.83908185 181.31369659 298.50716448 182.97982947 299.17993164 184.64404297 C300.22180556 193.6260929 299.59164924 201.2234302 294.17993164 208.64404297 C290.11963236 213.28579287 285.26616801 216.45126298 279.17993164 217.64404297 C275.16500632 217.86627131 271.19564543 217.82475009 267.17993164 217.64404297 C267.15415039 218.20091797 267.12836914 218.75779297 267.10180664 219.33154297 C266.50497797 227.36160151 264.34240576 232.93316573 258.36743164 238.45654297 C250.55575414 244.72305349 243.92224186 245.03959541 234.17993164 244.64404297 C234.17606445 245.55283203 234.17606445 245.55283203 234.17211914 246.47998047 C233.83744971 253.73115155 231.84175645 259.03634066 227.17993164 264.64404297 C220.97754506 269.8532024 216.10761224 271.78099417 207.99243164 271.70654297 C206.72012695 271.69751953 205.44782227 271.68849609 204.13696289 271.67919922 C202.67323242 271.66179687 202.67323242 271.66179687 201.17993164 271.64404297 C201.28305664 272.75779297 201.38618164 273.87154297 201.49243164 275.01904297 C201.47002051 281.33898178 198.67609197 286.81585181 194.53540039 291.50732422 C188.77603344 296.74665804 182.02278116 299.59455843 174.17993164 299.64404297 C164.12753403 299.02317685 156.21523748 293.33758576 147.89526367 288.21923828 C146.05245862 287.09242151 144.19898971 285.98501061 142.34399414 284.87841797 C141.25554199 284.21036133 140.16708984 283.54230469 139.0456543 282.85400391 C136.3168428 281.34240279 136.3168428 281.34240279 133.93920898 282.32080078 C132.54957997 283.36601161 131.20028149 284.46483093 129.86743164 285.58154297 C122.7256507 291.06244462 116.02123753 291.60738138 107.17993164 290.64404297 C98.07994913 288.16222956 93.33037827 282.14897948 88.17993164 274.64404297 C87.62305664 274.86060547 87.06618164 275.07716797 86.49243164 275.30029297 C78.69879769 278.14391617 72.37664809 278.70438902 64.48852539 275.81982422 C58.17937223 272.60653302 52.49448292 267.43339339 50.17993164 260.64404297 C50.17993164 259.32404297 50.17993164 258.00404297 50.17993164 256.64404297 C49.51993164 256.80904297 48.85993164 256.97404297 48.17993164 257.14404297 C39.12791412 258.65271256 31.59554462 257.16793654 23.92993164 252.08154297 C18.27469577 247.5325209 15.30278794 241.14797475 14.36743164 234.01904297 C14.27461914 232.34841797 14.27461914 232.34841797 14.17993164 230.64404297 C13.40649414 230.69044922 12.63305664 230.73685547 11.83618164 230.78466797 C5.00351373 231.02144359 -0.2994866 230.93910139 -5.82006836 226.64404297 C-11.68010081 221.14895916 -15.394884 216.4535959 -16.12084961 208.24169922 C-16.14329456 201.47080444 -15.83885979 196.68162584 -12.82006836 190.64404297 C-13.20767908 187.33292769 -14.44082759 185.65271383 -16.69506836 183.26904297 C-20.74081723 178.82797145 -24.40911657 174.13736295 -28.0871582 169.39257812 C-29.91853139 167.03665708 -31.70760913 164.75650219 -33.82006836 162.64404297 C-34.50069336 163.24216797 -35.18131836 163.84029297 -35.88256836 164.45654297 C-41.92165002 168.95373144 -48.44245005 171.05362528 -55.94848633 170.48193359 C-63.28317927 169.30539469 -69.07443105 166.13915206 -75.40820312 162.35913086 C-77.13822738 161.32817063 -78.88085989 160.32175266 -80.62670898 159.31787109 C-89.79755877 153.94295566 -97.75876802 148.24880067 -100.82006836 137.64404297 C-102.71468632 126.24527588 -98.33294504 118.14408524 -92.82006836 108.64404297 C-92.32667969 107.78439941 -91.83329102 106.92475586 -91.32495117 106.0390625 C-88.46814231 101.07165237 -85.57615831 96.12595047 -82.66381836 91.19091797 C-78.99628368 84.96665224 -75.40543607 78.70035054 -71.83197021 72.421875 C-65.38744347 61.099348 -58.87373231 49.81922799 -52.28881836 38.57763672 C-49.83657597 34.39072744 -47.4017855 30.19417486 -44.97631836 25.99169922 C-44.3435498 24.89825195 -43.71078125 23.80480469 -43.05883789 22.67822266 C-41.84827867 20.58567099 -40.64074521 18.49136491 -39.43676758 16.39501953 C-32.26683505 4.02577586 -32.26683505 4.02577586 -26.25756836 0.89404297 C-25.4931543 0.48669922 -24.72874023 0.07935547 -23.94116211 -0.34033203 C-16.14427503 -4.07364813 -7.72170213 -3.61808144 0 0 Z " fill="#030202" transform="translate(117.820068359375,81.35595703125)"/>
<path d="M0 0 C3.35907586 1.07723918 6.65894211 2.2426553 9.93359375 3.55078125 C21.47814478 8.10627557 32.98694422 11.03132569 45.14892578 13.43261719 C48.89663929 14.17843721 52.63352464 14.97200111 56.37109375 15.7668457 C59.91229403 16.51975501 63.45612455 17.25979731 67 18 C61.90369115 24.12837139 56.37522209 29.66886887 50.65820312 35.21484375 C44.59037637 40.91709945 44.59037637 40.91709945 41.6015625 48.46484375 C41.65201248 53.78731678 42.1936939 57.32282317 45 62 C45 62.66 45 63.32 45 64 C45.83724609 64.41572266 45.83724609 64.41572266 46.69140625 64.83984375 C48.26800475 65.63214452 49.83811517 66.43745523 51.40234375 67.25390625 C52.23894531 67.68574219 53.07554687 68.11757812 53.9375 68.5625 C55.18853516 69.21412109 55.18853516 69.21412109 56.46484375 69.87890625 C64.94734262 73.6300267 75.69026539 73.28485805 84.25 70.0625 C91.31979516 66.72946244 97.25666442 61.69316664 101.91796875 55.41796875 C105.35043666 51.06743557 108.14560929 48.89428304 113.66015625 48.12109375 C120.04302037 47.64533369 126.31393101 47.48514125 131.9921875 50.6875 C134.3125 52.875 134.3125 52.875 136.54296875 55.359375 C146.30747915 65.853507 161.52106922 72.97303065 175.29296875 76.30078125 C181.5328606 77.95415455 186.591922 80.89061324 192.0625 84.25 C194.17783332 85.51654754 196.29373886 86.78213978 198.41015625 88.046875 C199.49441895 88.69978516 200.57868164 89.35269531 201.69580078 90.02539062 C207.09217249 93.25029489 212.54787497 96.37063746 218 99.5 C220.16034584 100.74836988 222.32050199 101.99706808 224.48046875 103.24609375 C228.90806512 105.80255519 233.34974846 108.33224421 237.80078125 110.84765625 C239.97141724 112.08582693 242.14199247 113.32410414 244.3125 114.5625 C245.31474609 115.12195313 246.31699219 115.68140625 247.34960938 116.2578125 C253.28187186 119.66056154 257.86453878 122.72907756 261 129 C261.59571052 134.85782007 261.0252399 137.8553915 257.484375 142.5546875 C254.40806711 145.55003992 251.23103778 146.36055436 247.01171875 146.5390625 C239.79580103 146.38845696 234.79650082 143.12363766 228.8125 139.375 C227.11137604 138.35607137 225.41024193 137.33715909 223.7084198 136.31939697 C220.79313504 134.56661049 217.89757418 132.7818533 215 131 C211.65922715 128.9497002 208.313481 126.90850169 204.95385742 124.88916016 C202.90113899 123.6546894 200.85899668 122.40241194 198.8293457 121.13037109 C193.22502975 117.57925029 193.22502975 117.57925029 186.82421875 117.125 C185.89222656 117.41375 184.96023438 117.7025 184 118 C183.23283149 120.85078091 183.23283149 120.85078091 183 124 C185.25293054 126.97223088 188.43038703 128.54368488 191.62890625 130.36328125 C193.30629883 131.32331055 193.30629883 131.32331055 195.01757812 132.30273438 C196.19909469 132.97287503 197.38073597 133.64279584 198.5625 134.3125 C225.98267758 149.94803273 225.98267758 149.94803273 228 156 C228.39614654 161.24894167 227.86557317 164.55342094 225 169 C221.02337559 172.58866106 218.07011121 174.58559639 212.57714844 174.50878906 C206.57715958 173.32425166 201.31448763 169.49960346 196.125 166.375 C194.89806333 165.65336794 193.67020353 164.93330299 192.44140625 164.21484375 C187.94232099 161.57468275 183.46172898 158.90799278 179.03027344 156.15527344 C178.15145508 155.61161133 177.27263672 155.06794922 176.3671875 154.5078125 C175.6129248 154.03230957 174.85866211 153.55680664 174.08154297 153.06689453 C170.80266554 151.38630641 168.6081317 151.39864472 165 152 C164.34 152.66 163.68 153.32 163 154 C162.95978586 156.98984558 162.95978586 156.98984558 164 160 C166.00361086 161.9113065 166.00361086 161.9113065 168.6640625 163.25390625 C169.62183594 163.79853516 170.57960938 164.34316406 171.56640625 164.90429688 C172.57574219 165.45150391 173.58507812 165.99871094 174.625 166.5625 C193.57401656 177.15165631 193.57401656 177.15165631 195 182 C195.70439351 186.96351704 195.53310707 190.91404116 193.3125 195.4375 C189.70532756 199.43463703 187.53736578 200.78349155 182.14453125 201.54296875 C175.11148605 201.45492255 169.61382294 197.09931486 163.875 193.4375 C161.61378724 191.99660604 159.34155227 190.58466363 157.0546875 189.18359375 C156.05937012 188.54993896 155.06405273 187.91628418 154.03857422 187.26342773 C150.27204507 185.69731908 147.92579728 186.1209481 144 187 C143.24586647 190.24356576 143.24586647 190.24356576 144 194 C146.69834977 196.49447445 149.8196702 198.18483561 153 200 C157.28799361 202.7361483 161.03147514 205.13658563 163 210 C163.57057837 215.23030176 162.84948106 218.57839146 160 223 C155.68698431 226.89223367 152.70871333 228.56406045 146.77246094 228.49511719 C140.78707487 227.42622295 135.73853321 223.76521376 130.625 220.625 C129.43986569 219.91748617 128.25367342 219.21174134 127.06640625 218.5078125 C122.99318057 216.07603597 118.94743271 213.6316218 115 211 C116.75828256 206.08076004 119.32009807 201.66125444 121.875 197.125 C122.30941406 196.34769531 122.74382812 195.57039062 123.19140625 194.76953125 C126.63029578 188.62496887 126.63029578 188.62496887 128.17675781 186.01074219 C132.60304463 178.51364392 133.58913985 170.17436502 131.38671875 161.6171875 C128.40491948 154.91799091 122.64855111 149.81106337 115.875 147.125 C112.64566295 146.03007456 109.36435397 145.52419113 106 145 C105.98582031 144.17757812 105.97164062 143.35515625 105.95703125 142.5078125 C105.58778067 133.86535291 104.46744413 126.42148277 98.1015625 120.12109375 C92.29832886 115.50741183 86.82131552 113.71512264 79.375 113.75 C77.71597656 113.74226563 77.71597656 113.74226563 76.0234375 113.734375 C73.0687615 113.99395894 71.54610964 114.59908378 69 116 C68.01 116 67.02 116 66 116 C64.82421875 114.42578125 64.82421875 114.42578125 63.6875 112.3125 C60.39083364 106.74260998 56.29977763 102.91207925 50.12109375 100.50390625 C44.13314199 99.08135417 38.04979063 99.15181077 32.375 101.5 C31.59125 101.995 30.8075 102.49 30 103 C29.34 103 28.68 103 28 103 C27.02081934 101.45454619 26.11627417 99.86145626 25.25 98.25 C22.09156015 92.82238977 19.02058324 90.43837297 13.375 87.75 C5.63684361 86.03040969 -3.00949969 85.81996614 -10 90 C-17.11913679 94.82519272 -20.2878291 102.02319904 -24.3203125 109.42382812 C-24.866875 110.39384766 -25.4134375 111.36386719 -25.9765625 112.36328125 C-26.46205566 113.25313721 -26.94754883 114.14299316 -27.44775391 115.05981445 C-27.95999512 115.70007568 -28.47223633 116.34033691 -29 117 C-33 117 -33 117 -35.04296875 115.015625 C-35.75066406 114.10296875 -36.45835938 113.1903125 -37.1875 112.25 C-37.96480469 111.25226563 -38.74210937 110.25453125 -39.54296875 109.2265625 C-39.94435059 108.69836914 -40.34573242 108.17017578 -40.75927734 107.62597656 C-42.00499638 105.9934522 -43.2751984 104.38269445 -44.55078125 102.7734375 C-51.63821035 93.66264348 -51.63821035 93.66264348 -52 89 C-50.86694336 86.24291992 -50.86694336 86.24291992 -49.08984375 83.23046875 C-48.11035767 81.5451001 -48.11035767 81.5451001 -47.11108398 79.82568359 C-46.38679615 78.61281228 -45.66226185 77.40008812 -44.9375 76.1875 C-44.19794537 74.92608627 -43.45976182 73.66386777 -42.72290039 72.40087891 C-41.21757443 69.82589686 -39.70433037 67.25585188 -38.18359375 64.68994141 C-35.64073757 60.39859352 -33.13271043 56.08724755 -30.62524414 51.77514648 C-28.93052861 48.86302066 -27.22935996 45.95473876 -25.52734375 43.046875 C-21.03084745 35.35312448 -16.58752523 27.62869256 -12.14819336 19.90185547 C-1.63973135 1.63973135 -1.63973135 1.63973135 0 0 Z " fill="#FDD2AF" transform="translate(144,140)"/>
<path d="M0 0 C2.04162762 0.85425998 4.08329661 1.70842111 6.125 2.5625 C7.07632813 2.97628906 8.02765625 3.39007813 9.0078125 3.81640625 C24.24399284 9.84325043 38.2415867 7.53291653 53.10742188 1.72753906 C55.70878769 0.72753002 58.34915867 -0.14139416 61 -1 C65.70298121 5.76614191 69.77769821 12.78572497 73.75 20 C78.10926689 27.85078808 82.50987451 35.66400965 87.09399414 43.38549805 C91.6520569 51.07231425 96.10223187 58.82105581 100.56030273 66.56616211 C101.46437866 68.13636108 101.46437866 68.13636108 102.38671875 69.73828125 C102.97630371 70.77033691 103.56588867 71.80239258 104.17333984 72.86572266 C105.43217217 75.02569183 106.72654454 77.16520641 108.04931641 79.28662109 C109.02457275 80.86757568 109.02457275 80.86757568 110.01953125 82.48046875 C110.91248901 83.89235474 110.91248901 83.89235474 111.82348633 85.33276367 C113.22657028 88.51365019 113.16592882 89.76000026 112 93 C110.69311523 95.12817383 110.69311523 95.12817383 109.05859375 97.20703125 C108.47529297 97.95791016 107.89199219 98.70878906 107.29101562 99.48242188 C106.67935547 100.25134766 106.06769531 101.02027344 105.4375 101.8125 C104.82197266 102.60076172 104.20644531 103.38902344 103.57226562 104.20117188 C102.05604676 106.14052159 100.53187371 108.07300896 99 110 C95.47364969 108.66006577 92.21569152 107.105757 88.921875 105.26953125 C87.93695068 104.72055176 86.95202637 104.17157227 85.93725586 103.60595703 C84.88546143 103.01411621 83.83366699 102.42227539 82.75 101.8125 C81.66275635 101.2026123 80.5755127 100.59272461 79.45532227 99.96435547 C67.49422339 93.21398988 55.73333085 86.13809066 44 79 C47.23388807 77.31053952 50.17855945 76.41145712 53.75 75.625 C59.00501087 74.36920696 63.2917321 72.62576479 68 70 C68 67.69 68 65.38 68 63 C61.96062855 61.66059093 57.89161715 62.60988309 52.0625 64.4375 C31.59589164 70.28794131 12.53435694 65.99457562 -5.9375 55.875 C-13.63489462 51.26061983 -21.02806967 45.35943573 -27.08203125 38.71484375 C-30.71138097 35.46986508 -35.33392377 36.14982814 -40 36 C-41.40630695 35.9018543 -42.8125539 35.80284627 -44.21875 35.703125 C-53.31280359 34.97068151 -53.31280359 34.97068151 -61.25 38.6875 C-62.53357275 40.09510337 -63.77813657 41.53850898 -65 43 C-80.69693636 59.87727761 -80.69693636 59.87727761 -92.9375 60.5625 C-98.76302324 60.33844141 -104.66923272 59.13102539 -109 55 C-110.04882812 51.88330078 -110.04882812 51.88330078 -110 48 C-108.13318154 44.93411774 -105.65024915 42.57693037 -103.08203125 40.08984375 C-102.35441086 39.3593129 -101.62679047 38.62878204 -100.87712097 37.87611389 C-99.33044788 36.33276039 -97.7738476 34.79930131 -96.20825195 33.27514648 C-93.8417404 30.96603122 -91.51426766 28.62248983 -89.18945312 26.27148438 C-78.60010204 15.70912327 -69.44207299 8.67383249 -54.5625 5.5 C-52.83112273 5.10421399 -51.10067824 4.70432966 -49.37109375 4.30078125 C-48.49050293 4.09533691 -47.60991211 3.88989258 -46.70263672 3.67822266 C-43.03068238 2.75675119 -39.43249164 1.63346298 -35.81713867 0.51342773 C-23.44467462 -3.28235044 -12.30819246 -5.35322069 0 0 Z " fill="#FDDCC0" transform="translate(307,141)"/>
<path d="M0 0 C2.00526868 1.12705843 4.00128711 2.2707149 5.98828125 3.4296875 C6.99439453 3.9865625 8.00050781 4.5434375 9.03710938 5.1171875 C15.46230025 8.79356567 20.89492557 12.49297613 24.30078125 19.3046875 C24.46641183 26.29910978 22.08740767 31.46117259 18.61328125 37.3671875 C18.12633789 38.22296387 17.63939453 39.07874023 17.13769531 39.96044922 C15.54236141 42.75203255 13.92362103 45.52901594 12.30078125 48.3046875 C11.19499796 50.21205726 10.08953285 52.11961153 8.984375 54.02734375 C6.65536651 58.0368904 4.31533458 62.03977929 1.96875 66.0390625 C-1.76247909 72.40239893 -5.45387707 78.7882526 -9.13671875 85.1796875 C-9.75466309 86.2514624 -10.37260742 87.3232373 -11.00927734 88.42749023 C-14.23068834 94.01625791 -17.44840087 99.60714133 -20.6640625 105.19921875 C-23.78858403 110.63101371 -26.92241302 116.05732457 -30.06445312 121.47900391 C-31.0951669 123.26058712 -32.12292519 125.04388656 -33.14648438 126.82958984 C-34.36326911 128.95175255 -35.59158051 131.06670767 -36.82421875 133.1796875 C-37.78714844 134.84644531 -37.78714844 134.84644531 -38.76953125 136.546875 C-41.20796405 140.03176074 -43.89425934 142.40220779 -47.69921875 144.3046875 C-56.82985086 145.02081551 -63.68313664 140.34718809 -71.32421875 135.9296875 C-72.15695313 135.46046875 -72.9896875 134.99125 -73.84765625 134.5078125 C-84.03333858 128.63644785 -84.03333858 128.63644785 -86.69921875 123.3046875 C-88.2578466 113.6526343 -84.57572518 107.24227865 -79.63671875 99.2421875 C-78.90324346 98.01398456 -78.17224791 96.78429772 -77.44360352 95.55322266 C-75.9445843 93.026359 -74.43411641 90.50693876 -72.9140625 87.99267578 C-69.56590826 82.43994492 -66.35997373 76.80547515 -63.13671875 71.1796875 C-61.89675842 69.03071596 -60.65587246 66.88227824 -59.4140625 64.734375 C-56.29838753 59.34239659 -53.18534202 53.94890848 -50.07397461 48.55444336 C-48.8318433 46.40129714 -47.58917424 44.24846104 -46.34594727 42.09594727 C-43.43212566 37.04989295 -40.52294523 32.00133725 -37.63067627 26.94290161 C-36.60715466 25.15332623 -35.58212621 23.36462244 -34.55664062 21.57617188 C-33.27108499 19.33309894 -31.98835706 17.0884021 -30.70898438 14.84179688 C-22.96554743 1.34853714 -16.38459768 -8.46313 0 0 Z " fill="#F2EAE6" transform="translate(116.69921875,94.6953125)"/>
<path d="M0 0 C4.4098768 4.09188568 6.93208356 9.0490503 9.80859375 14.2890625 C10.46334508 15.4565709 11.11962476 16.62322336 11.77734375 17.7890625 C13.14118681 20.20929911 14.49841183 22.63306844 15.85107422 25.05957031 C18.96325135 30.62951486 22.17223331 36.14361825 25.37109375 41.6640625 C26.6215453 43.83046859 27.87154397 45.99713615 29.12109375 48.1640625 C29.73984375 49.2365625 30.35859375 50.3090625 30.99609375 51.4140625 C32.87109375 54.6640625 34.74609375 57.9140625 36.62109375 61.1640625 C37.24072998 62.23809326 37.86036621 63.31212402 38.4987793 64.41870117 C39.73984629 66.56989474 40.98089468 68.72109905 42.22192383 70.87231445 C45.13607719 75.92369249 48.05041193 80.9749656 50.96542358 86.02584839 C51.99782853 87.81473168 53.03017331 89.60364967 54.0625 91.39257812 C55.35795323 93.63743886 56.65351945 95.8822344 57.94921875 98.12695312 C59.09518117 100.11286822 60.23837846 102.10038274 61.37817383 104.08984375 C62.28691423 105.65677079 63.21229013 107.21439998 64.16674805 108.75390625 C66.39093549 112.37799737 67.40080786 115.02262289 67.30859375 119.2890625 C67.30730469 120.18882812 67.30601562 121.08859375 67.3046875 122.015625 C66.62780724 126.15008277 64.95943161 128.83493146 61.62207031 131.37744141 C60.7606543 131.87679199 59.89923828 132.37614258 59.01171875 132.890625 C58.06039062 133.4475 57.1090625 134.004375 56.12890625 134.578125 C55.13632812 135.14273438 54.14375 135.70734375 53.12109375 136.2890625 C52.14398438 136.86140625 51.166875 137.43375 50.16015625 138.0234375 C35.33616177 146.61416207 35.33616177 146.61416207 27.87109375 145.6640625 C18.46991644 141.25126499 13.89619577 129.33633894 9.12109375 120.6640625 C5.12933551 113.47513629 1.13110731 106.29769687 -3.06640625 99.2265625 C-7.20208658 92.25636306 -11.27003145 85.24900407 -15.31640625 78.2265625 C-15.94788574 77.13093994 -16.57936523 76.03531738 -17.22998047 74.90649414 C-19.87806808 70.31053759 -22.52468799 65.71373676 -25.17089844 61.11669922 C-26.52468697 58.76495312 -27.87894319 56.41347738 -29.23364258 54.06225586 C-30.49991619 51.86431816 -31.76543005 49.6659425 -33.0300293 47.46704102 C-33.61051025 46.45955811 -34.19099121 45.4520752 -34.7890625 44.4140625 C-35.34432617 43.44952148 -35.89958984 42.48498047 -36.47167969 41.49121094 C-38.57763061 37.89856043 -40.77436462 34.36482117 -42.99926758 30.84472656 C-44.92565287 27.12601608 -44.81734582 24.79469992 -44.12890625 20.6640625 C-39.82400079 12.37313346 -31.67661156 8.39444418 -23.87890625 3.8515625 C-22.87988281 3.24119141 -21.88085938 2.63082031 -20.8515625 2.00195312 C-13.05630917 -2.51725583 -8.30828688 -3.54735844 0 0 Z " fill="#F2EAE6" transform="translate(415.12890625,93.3359375)"/>
<path d="M0 0 C4.40830916 2.16407904 7.12843553 4.42506462 9 9 C11.38669441 22.12681924 -1.95045906 37.99505709 -8.29296875 48.703125 C-10.76281447 52.87418956 -13.17790815 57.06992665 -15.55078125 61.296875 C-16.12038574 62.29783203 -16.68999023 63.29878906 -17.27685547 64.33007812 C-18.35589062 66.22735252 -19.42210506 68.13199662 -20.47314453 70.04492188 C-23.6432025 75.56113404 -26.08011983 78.51242693 -32 81 C-36.01646945 82.00411736 -39.49215777 81.89739118 -43.09375 79.75390625 C-46.70241944 76.78858566 -48.59107828 74.70679387 -49.31298828 69.92822266 C-49.74899516 62.05596561 -46.86967951 56.98659364 -42.875 50.375 C-42.24916016 49.30121094 -41.62332031 48.22742188 -40.97851562 47.12109375 C-39.66498988 44.87195976 -38.34223866 42.62819053 -37.01074219 40.38964844 C-35.03474672 37.05857497 -33.0940776 33.70945069 -31.1640625 30.3515625 C-12.52497326 -1.98713518 -12.52497326 -1.98713518 0 0 Z " fill="#FDDCC0" transform="translate(229,265)"/>
<path d="M0 0 C5.33739473 1.98844117 8.45333824 4.90667648 11 10 C11.8606712 17.5013402 9.34875593 22.04355232 5.625 28.4375 C5.08133789 29.40034912 4.53767578 30.36319824 3.97753906 31.35522461 C2.33688129 34.24792551 0.67219618 37.1254392 -1 40 C-1.70334473 41.22058105 -1.70334473 41.22058105 -2.42089844 42.46582031 C-4.8600956 46.69700711 -7.33745677 50.90286164 -9.85498047 55.08789062 C-10.9902299 56.98368456 -12.10752606 58.88919345 -13.22265625 60.796875 C-13.9186216 61.96913569 -14.61520149 63.14103182 -15.3125 64.3125 C-16.20388672 65.82263672 -16.20388672 65.82263672 -17.11328125 67.36328125 C-19.54430521 70.76067499 -22.26067261 73.1303363 -26 75 C-30.64304187 75.56645111 -34.12513117 75.42123314 -38.375 73.375 C-42.32555983 69.80068396 -43.72592821 66.86069052 -44.5 61.60546875 C-44.39012478 55.02650172 -40.35778854 49.57346137 -37.125 44.0625 C-36.43359376 42.85642355 -35.74357989 41.64954787 -35.05493164 40.44189453 C-33.05683523 36.94930203 -31.02921528 33.47459883 -29 30 C-27.99518721 28.25703272 -26.99116822 26.51360734 -25.98828125 24.76953125 C-23.70431555 20.81771972 -21.36799325 16.90206044 -19 13 C-18.42894531 12.04738281 -17.85789063 11.09476562 -17.26953125 10.11328125 C-12.92357234 3.17538798 -8.74267281 -1.0928341 0 0 Z " fill="#FCDBBF" transform="translate(189,251)"/>
<path d="M0 0 C3.76266417 1.77871397 5.51796464 3.33137031 7.9375 6.6875 C9.73651847 12.29620466 8.98081694 16.8084736 6.61987305 22.08374023 C4.78125586 25.56095232 2.8507245 28.97487222 0.875 32.375 C0.21479713 33.54090398 -0.44406573 34.70756781 -1.1015625 35.875 C-3.03360466 39.27140744 -5.00378384 42.64095356 -7 46 C-7.9295752 47.56476074 -7.9295752 47.56476074 -8.87792969 49.16113281 C-9.47250977 50.13147461 -10.06708984 51.10181641 -10.6796875 52.1015625 C-11.20030762 52.95314941 -11.72092773 53.80473633 -12.25732422 54.68212891 C-14.65799402 57.87517445 -17.42360101 60.21180051 -21 62 C-26.24308569 62.40331428 -29.56127553 61.86051133 -34 59 C-37.84900406 54.7348874 -39.38105891 52.04529557 -39.29052734 46.21191406 C-38.77272012 42.26961701 -36.84331435 39.23436296 -34.8125 35.875 C-34.37196289 35.11944824 -33.93142578 34.36389648 -33.47753906 33.58544922 C-32.51563107 31.94022043 -31.54640026 30.2992564 -30.57080078 28.66210938 C-28.89422855 25.8207442 -27.27109226 22.95279104 -25.65234375 20.078125 C-24.51929167 18.09314313 -23.3851926 16.1087585 -22.25 14.125 C-21.71995361 13.17995605 -21.18990723 12.23491211 -20.64379883 11.26123047 C-15.49686455 2.41521307 -10.65764041 -1.69829067 0 0 Z " fill="#FCDBC0" transform="translate(153,238)"/>
<path d="M0 0 C3.31706967 2.09692759 6.22874044 4.45748089 8 8 C8.86389574 15.30213851 7.56183077 20.205402 3.75 26.375 C3.30688477 27.12740967 2.86376953 27.87981934 2.40722656 28.6550293 C1.45519417 30.26525897 0.49363521 31.86988789 -0.4765625 33.46923828 C-2.06268363 36.10413118 -3.59691533 38.76467224 -5.125 41.43359375 C-6.16535653 43.22732301 -7.20699558 45.02030912 -8.25 46.8125 C-8.73243164 47.65409668 -9.21486328 48.49569336 -9.71191406 49.36279297 C-12.9516276 54.82025982 -16.09985244 59.56796612 -22.30859375 61.84765625 C-28.19492049 62.44168922 -31.28969762 61.67403586 -36 58 C-39.40144306 53.2818693 -39.76606437 48.62871482 -39 43 C-37.72949261 39.61280813 -35.9793374 36.59897062 -34.125 33.5 C-33.6290332 32.64067871 -33.13306641 31.78135742 -32.62207031 30.89599609 C-31.59688343 29.12489288 -30.56364183 27.35842799 -29.52246094 25.59667969 C-28.0746747 23.12736372 -26.67496103 20.63726328 -25.2890625 18.1328125 C-24.4436341 16.62968726 -23.59732326 15.12705791 -22.75 13.625 C-22.37504395 12.94244141 -22.00008789 12.25988281 -21.61376953 11.55664062 C-16.5729777 2.83060063 -10.3091966 -2.79172371 0 0 Z " fill="#FCDBC0" transform="translate(257,298)"/>
<path d="M0 0 C1.9375 1.125 1.9375 1.125 3 3 C3.625 5.6875 3.625 5.6875 3 9 C1.71409607 10.75378418 1.71409607 10.75378418 0.00561523 12.63867188 C-0.63135284 13.34266113 -1.26832092 14.04665039 -1.92459106 14.77197266 C-7.94652513 21.23673896 -14.12065576 27.54847396 -20.32397461 33.83886719 C-22.07262411 35.61936971 -23.81316115 37.40787446 -25.5456543 39.20410156 C-28.06223372 41.81170468 -30.60389073 44.39233558 -33.15234375 46.96875 C-33.9202977 47.77485718 -34.68825165 48.58096436 -35.47947693 49.41149902 C-41.57240406 55.48275498 -41.57240406 55.48275498 -46.42407227 55.60351562 C-50 55 -50 55 -52.0625 53.375 C-53.33657755 50.14733687 -52.86632785 48.34294651 -52 45 C-50.21847534 42.57009888 -50.21847534 42.57009888 -47.86669922 40.18798828 C-46.54930252 38.8372673 -46.54930252 38.8372673 -45.20529175 37.45925903 C-44.23920893 36.49548906 -43.2723207 35.53252586 -42.3046875 34.5703125 C-41.31338782 33.57055869 -40.32268423 32.57021353 -39.33255005 31.56930542 C-37.25771869 29.47810658 -35.17363688 27.3966899 -33.08300781 25.32128906 C-30.40924485 22.66482279 -27.76370613 19.98209939 -25.1249218 17.29094124 C-23.08677207 15.21966494 -21.03256893 13.16491353 -18.97339249 11.11455917 C-17.99119482 10.13200231 -17.01442731 9.14398511 -16.04336166 8.15042496 C-14.68233349 6.76209013 -13.29642826 5.39827697 -11.90966797 4.03564453 C-11.12880829 3.25432159 -10.34794861 2.47299866 -9.54342651 1.66799927 C-6.1933556 -0.52900379 -3.92928502 -0.38239623 0 0 Z " fill="#000000" transform="translate(353,42)"/>
<path d="M0 0 C2.54342651 1.66799927 2.54342651 1.66799927 4.90966797 4.03564453 C5.8068454 4.91721222 6.70402283 5.79877991 7.62838745 6.70706177 C8.58373653 7.68157825 9.53831845 8.6568473 10.4921875 9.6328125 C11.48753006 10.62851906 12.48406056 11.6230394 13.48171997 12.61642456 C15.56550321 14.69891515 17.63665341 16.79298184 19.69921875 18.89648438 C22.33867182 21.58701117 25.00392957 24.25007087 27.67873955 26.90539742 C29.73862229 28.95496443 31.78592477 31.01673216 33.82950211 33.08254623 C34.80768323 34.06906961 35.78929413 35.05220478 36.77441025 36.03180313 C38.15084382 37.40494145 39.50918899 38.79613908 40.86669922 40.18798828 C42.0308284 41.36713303 42.0308284 41.36713303 43.21847534 42.57009888 C45.32728437 45.44639778 45.77280776 47.46607949 46 51 C45.0625 53.375 45.0625 53.375 43 55 C39.69319881 55.66381883 38.17282932 55.86869154 35 55 C31.11540833 52.25674804 27.90939135 48.86566943 24.62890625 45.4453125 C23.6579337 44.46194251 22.68524318 43.48026615 21.71092224 42.50021362 C19.15972969 39.92423542 16.63388199 37.32471892 14.11224365 34.71984863 C12.04587414 32.59333785 9.96267725 30.48376364 7.87829685 28.37492561 C3.57648957 24.02253478 -0.71184109 19.65698936 -4.97436523 15.26611328 C-5.72967026 14.48889923 -6.48497528 13.71168518 -7.26316833 12.91091919 C-9.5074416 10.4416961 -9.96397788 9.42325996 -10.25 6.0625 C-10 3 -10 3 -8.9375 1.125 C-5.89580968 -0.64114276 -3.45451238 -0.3023038 0 0 Z " fill="#000000" transform="translate(166,42)"/>
<path d="M0 0 C2.87883965 3.18736248 5.05990276 6.60939405 7.1796875 10.33203125 C7.77257568 11.36674561 8.36546387 12.40145996 8.97631836 13.4675293 C9.6028833 14.57136963 10.22944824 15.67520996 10.875 16.8125 C12.20592502 19.14907876 13.53761169 21.48519488 14.87109375 23.8203125 C15.20973953 24.41412216 15.54838531 25.00793182 15.89729309 25.61973572 C18.24187778 29.71657912 20.65204891 33.76728909 23.09765625 37.8046875 C23.74299316 38.87871826 24.38833008 39.95274902 25.05322266 41.05932617 C26.2843808 43.10322734 27.52709284 45.14022524 28.78271484 47.16918945 C31.88769385 52.35842504 33.92950548 55.90567708 33 62 C31.875 63.9375 31.875 63.9375 30 65 C27.0625 65.4375 27.0625 65.4375 24 65 C20.66643526 62.18641701 18.68440065 59.04087033 16.56640625 55.2578125 C15.92324463 54.11916748 15.28008301 52.98052246 14.61743164 51.80737305 C13.93225078 50.58002903 13.24727794 49.35256886 12.5625 48.125 C11.13867996 45.59060281 9.71055595 43.05865046 8.28125 40.52734375 C7.92333878 39.89232437 7.56542755 39.25730499 7.19667053 38.6030426 C4.89255936 34.53003065 2.52179822 30.50483714 0.09375 26.50390625 C-0.50381104 25.51696777 -1.10137207 24.5300293 -1.71704102 23.51318359 C-2.83578682 21.67575434 -3.96342728 19.84370119 -5.10131836 18.01806641 C-7.97593508 13.27737319 -9.89942647 9.60338243 -10 4 C-7.36084364 -0.11708392 -4.74569407 -0.88981764 0 0 Z " fill="#000000" transform="translate(349,405)"/>
<path d="M0 0 C1.21284668 0.72872314 1.21284668 0.72872314 2.45019531 1.47216797 C3.3812207 2.02404785 4.31224609 2.57592773 5.27148438 3.14453125 C6.26374023 3.74507324 7.25599609 4.34561523 8.27832031 4.96435547 C10.4130997 6.23625902 12.54854129 7.50705167 14.68457031 8.77685547 C15.79703125 9.44072266 16.90949219 10.10458984 18.05566406 10.78857422 C21.59571858 12.88932106 25.16762382 14.93165275 28.74707031 16.96435547 C29.33748108 17.30054901 29.92789185 17.63674255 30.53619385 17.98312378 C33.40361963 19.61582754 36.27369776 21.24348078 39.1484375 22.86328125 C40.18645508 23.45608887 41.22447266 24.04889648 42.29394531 24.65966797 C43.66728027 25.43721436 43.66728027 25.43721436 45.06835938 26.23046875 C47.60838408 27.89171953 49.56139109 29.5287515 51.52832031 31.83935547 C52.03131347 35.94713296 51.85581376 37.3481153 49.52832031 40.83935547 C41.56286254 42.24664766 36.2713829 38.33464567 29.65332031 34.27685547 C27.94140469 33.25598497 26.22946936 32.23514597 24.51643372 31.21615601 C22.73120886 30.15178853 20.95038537 29.08028742 19.16943359 28.00878906 C15.52421538 25.82548655 11.84259591 23.70978216 8.14941406 21.60888672 C7.55374634 21.26937485 6.95807861 20.92986298 6.34436035 20.58006287 C3.47070669 18.94267464 0.59532472 17.30839289 -2.28173828 15.67700195 C-3.31250488 15.08604736 -4.34327148 14.49509277 -5.40527344 13.88623047 C-6.3133374 13.36899414 -7.22140137 12.85175781 -8.15698242 12.31884766 C-10.27877612 10.96265424 -11.89767595 9.79831446 -13.47167969 7.83935547 C-13.89646555 3.76141122 -13.78450556 2.30859427 -11.47167969 -1.16064453 C-7.21033842 -2.58109162 -4.03964506 -1.89692539 0 0 Z " fill="#000000" transform="translate(418.4716796875,341.16064453125)"/>
<path d="M0 0 C2 3 2 3 2.1875 6.3125 C-0.61165554 15.00461457 -13.81316093 19.41602421 -21.5 23.75 C-23.99589194 25.1595217 -26.49074172 26.57086115 -28.984375 27.984375 C-29.59291321 28.32915894 -30.20145142 28.67394287 -30.82843018 29.0291748 C-34.36981376 31.0446159 -37.86606133 33.11703748 -41.328125 35.265625 C-42.09060547 35.73516602 -42.85308594 36.20470703 -43.63867188 36.68847656 C-44.99303665 37.52978641 -46.33903101 38.38481366 -47.67382812 39.25683594 C-52.39314009 42.17140563 -55.61241593 42.64192491 -61 42 C-63.32749345 38.50875983 -63.50299316 37.10777749 -63 33 C-60.19068818 29.66368468 -57.03977218 27.68378584 -53.2578125 25.56640625 C-52.11884521 24.92324463 -50.97987793 24.28008301 -49.80639648 23.61743164 C-48.57928111 22.93242435 -47.3521486 22.24744777 -46.125 21.5625 C-43.59586479 20.13858226 -41.06936768 18.71001567 -38.54296875 17.28125 C-37.90877518 16.92333878 -37.2745816 16.56542755 -36.62117004 16.19667053 C-29.57018363 12.20906104 -22.61103967 8.06846236 -15.66650391 3.89868164 C-14.82651855 3.39715576 -13.9865332 2.89562988 -13.12109375 2.37890625 C-12.3933374 1.9413501 -11.66558105 1.50379395 -10.91577148 1.05297852 C-6.92473887 -1.1406399 -4.35417489 -1.11170423 0 0 Z " fill="#000000" transform="translate(105,340)"/>
<path d="M0 0 C3 2 3 2 3.84472656 4.80517578 C4.02527132 8.51996936 3.38556174 9.96363171 1.484375 13.1171875 C0.92556641 14.07077148 0.36675781 15.02435547 -0.20898438 16.00683594 C-1.09553711 17.48845215 -1.09553711 17.48845215 -2 19 C-3.10522305 20.97828387 -4.20413617 22.96010548 -5.296875 24.9453125 C-10.68296728 34.59932267 -16.07836835 44.24956217 -21.625 53.8125 C-22.01397461 54.4926416 -22.40294922 55.1727832 -22.80371094 55.87353516 C-24.85160571 59.37044607 -26.85128772 62.41561904 -30 65 C-34.10777749 65.50299316 -35.50875983 65.32749345 -39 63 C-40.40729219 55.03454223 -36.4952902 49.74306259 -32.4375 43.125 C-31.4166295 41.41308438 -30.3957905 39.70114905 -29.37680054 37.9881134 C-28.31243306 36.20288854 -27.24093195 34.42206505 -26.16943359 32.64111328 C-23.98613108 28.99589507 -21.87042669 25.31427559 -19.76953125 21.62109375 C-19.43001938 21.02542603 -19.09050751 20.4297583 -18.7407074 19.81604004 C-17.10331917 16.94238637 -15.46903743 14.0670044 -13.83764648 11.18994141 C-13.24669189 10.1591748 -12.6557373 9.1284082 -12.046875 8.06640625 C-11.52963867 7.15834229 -11.01240234 6.25027832 -10.47949219 5.31469727 C-7.44673439 0.56988263 -5.76986918 -0.60102804 0 0 Z " fill="#000000" transform="translate(169,405)"/>
<path d="M0 0 C2.55949546 1.85342775 2.97918798 2.93756393 4 6 C4.09874309 7.95171701 4.13824897 9.90663917 4.14526367 11.86083984 C4.15164352 13.06574066 4.15802338 14.27064148 4.16459656 15.51205444 C4.16570938 16.81518585 4.1668222 18.11831726 4.16796875 19.4609375 C4.17118281 20.81230708 4.174547 22.16367631 4.17805481 23.51504517 C4.18404182 26.34792894 4.18589517 29.18078222 4.18530273 32.01367188 C4.18520119 35.63737633 4.19884687 39.26088449 4.21607494 42.88454247 C4.22721376 45.67614636 4.22922136 48.4677031 4.22869301 51.25932693 C4.23044184 53.24291688 4.24127153 55.22649211 4.25224304 57.21005249 C4.24916641 58.42125763 4.24608978 59.63246277 4.24291992 60.88037109 C4.24434494 61.94387787 4.24576996 63.00738464 4.24723816 64.1031189 C3.96903627 67.36280092 3.39625335 70.60374665 1 73 C-4.73611111 73.27314815 -4.73611111 73.27314815 -7 73 C-9.79196585 70.20803415 -9.25957225 68.48958796 -9.2746582 64.57836914 C-9.27976913 63.91965317 -9.28488007 63.26093719 -9.29014587 62.58226013 C-9.30407195 60.39980033 -9.30308286 58.21765526 -9.30078125 56.03515625 C-9.30466667 54.5206236 -9.30900101 53.00609203 -9.31376648 51.49156189 C-9.32123525 48.31473257 -9.3209328 45.13801436 -9.31567383 41.96118164 C-9.3098796 37.88763342 -9.32680547 33.81453995 -9.3500185 29.74106693 C-9.36474239 26.61239456 -9.36562938 23.48383203 -9.36250877 20.35513115 C-9.36302271 18.85320574 -9.36827404 17.3512743 -9.37832069 15.8493824 C-9.39064173 13.74962864 -9.38392053 11.65076464 -9.37231445 9.55102539 C-9.37294388 8.35570694 -9.3735733 7.16038849 -9.3742218 5.92884827 C-9 3 -9 3 -7.66423035 1.11399841 C-5.05850323 -0.63021679 -3.04536813 -0.38067102 0 0 Z " fill="#000000" transform="translate(259,429)"/>
<path d="M0 0 C0.70125 0.00515625 1.4025 0.0103125 2.125 0.015625 C2.82625 0.01046875 3.5275 0.0053125 4.25 0 C6.125 0.265625 6.125 0.265625 8.125 2.265625 C9.28370605 5.56615461 9.26374438 8.76534185 9.28613281 12.23999023 C9.29574036 13.44481552 9.3053479 14.64964081 9.31524658 15.89097595 C9.31949646 17.18894608 9.32374634 18.4869162 9.328125 19.82421875 C9.33388118 21.17415874 9.33963885 22.52409872 9.34539795 23.8740387 C9.35588673 26.70094176 9.36174365 29.52781656 9.36523438 32.35473633 C9.37072289 35.97064868 9.39476698 39.58618521 9.42320633 43.20197964 C9.44185924 45.98929427 9.44703965 48.77651869 9.44857025 51.56389046 C9.45305445 53.54308051 9.47168412 55.5222222 9.49053955 57.50132751 C9.48753845 58.70930496 9.48453735 59.91728241 9.48144531 61.16186523 C9.48509094 62.2223558 9.48873657 63.28284637 9.49249268 64.37547302 C9.03317667 67.98777105 7.71774895 70.67287605 5.125 73.265625 C-0.17798541 73.72675417 -0.17798541 73.72675417 -2.54704285 72.15943909 C-4.51316872 69.35552568 -4.24910509 67.11513221 -4.24731445 63.71459961 C-4.25096512 63.05413132 -4.25461578 62.39366302 -4.25837708 61.71318054 C-4.26647989 59.53118132 -4.25287708 57.34992529 -4.23828125 55.16796875 C-4.23776267 53.65247091 -4.23828029 52.13697239 -4.23979187 50.62147522 C-4.23970216 47.44635977 -4.229275 44.27149831 -4.21118164 41.09643555 C-4.188475 37.02176493 -4.18795395 32.94746487 -4.19469929 28.87274837 C-4.19803649 25.74411206 -4.19141425 22.61556062 -4.18157005 19.48694038 C-4.17771489 17.98420213 -4.17657114 16.48145444 -4.1781559 14.97871208 C-4.17852573 12.88137607 -4.16593073 10.78451995 -4.1496582 8.68725586 C-4.14505081 7.492733 -4.14044342 6.29821014 -4.13569641 5.06748962 C-3.83911048 1.87989831 -3.34272275 0.47355239 0 0 Z " fill="#000000" transform="translate(253.875,9.734375)"/>
<path d="M0 0 C6.81839746 5.51274689 6.81839746 5.51274689 7.25366211 9.07739258 C7.48584345 15.82512168 6.07389852 19.99670116 2.5625 25.6875 C2.11600098 26.4491748 1.66950195 27.21084961 1.20947266 27.99560547 C-0.17322541 30.34331664 -1.58480158 32.67177033 -3 35 C-3.89103975 36.49767782 -4.78041704 37.99634622 -5.66796875 39.49609375 C-7.75523314 43.01197826 -9.86916197 46.51036671 -12 50 C-12.66 49.67 -13.32 49.34 -14 49 C-12.7228217 44.75380188 -11.11499397 41.24233013 -8.77734375 37.48046875 C-7.84631836 35.94616211 -7.84631836 35.94616211 -6.89648438 34.38085938 C-5.59464059 32.25871123 -4.284777 30.14146126 -2.96679688 28.02929688 C1.3511401 20.87167606 3.96812413 15.31452758 2.44140625 6.93359375 C2.15136719 6.10988281 1.86132812 5.28617187 1.5625 4.4375 C1.27503906 3.59058594 0.98757813 2.74367188 0.69140625 1.87109375 C0.46324219 1.25363281 0.23507812 0.63617188 0 0 Z " fill="#EFC29F" transform="translate(258,299)"/>
<path d="M0 0 C3.11042579 1.51318012 4.84987386 2.7898234 6.875 5.625 C8.6639822 10.99194661 8.10981371 15.52907713 5.78808594 20.69824219 C4.24294298 23.5358318 2.61782863 26.30292029 0.9375 29.0625 C0.36966797 30.02349609 -0.19816406 30.98449219 -0.78320312 31.97460938 C-2.17486018 34.32522338 -3.58042582 36.66617791 -5 39 C-5.66 38.67 -6.32 38.34 -7 38 C-5.66590983 33.5150436 -3.86281314 29.80743125 -1.4375 25.8125 C2.29251255 19.64751044 3.73523305 15.18077609 3 8 C1.61785878 4.64838754 1.61785878 4.64838754 0 2 C0 1.34 0 0.68 0 0 Z " fill="#EEC09E" transform="translate(154,239)"/>
<path d="M0 0 C5.79118329 5.64269142 5.79118329 5.64269142 6.5 10.25 C6.41526323 19.53714946 -1.07663645 29.54035826 -6 37 C-6.66 36.67 -7.32 36.34 -8 36 C-6.70763447 31.56810002 -4.95119257 28.24878078 -2.375 24.4375 C2.4262862 16.4486379 1.96092383 8.87318031 0 0 Z " fill="#F0C29F" transform="translate(232,267)"/>
<path d="M0 0 C5.87924528 4.33207547 5.87924528 4.33207547 7 8 C7.61691184 14.86778967 6.07361687 18.70494562 2.5 24.5 C2.07074219 25.22703125 1.64148438 25.9540625 1.19921875 26.703125 C0.14829914 28.47801145 -0.9237239 30.24037399 -2 32 C-2.66 31.67 -3.32 31.34 -4 31 C-2.97937185 27.51285381 -1.93264194 24.90094403 0.125 21.875 C3.05655809 16.96354634 2.53494565 11.52522431 2 6 C1.15697007 2.44457748 1.15697007 2.44457748 0 0 Z " fill="#EFC29E" transform="translate(193,253)"/>
<path d="M0 0 C0.66 0.33 1.32 0.66 2 1 C0.41391688 3.84382702 -1.19672413 6.67295403 -2.8125 9.5 C-3.26431641 10.31082031 -3.71613281 11.12164062 -4.18164062 11.95703125 C-4.84389648 13.10751953 -4.84389648 13.10751953 -5.51953125 14.28125 C-5.92276611 14.99345703 -6.32600098 15.70566406 -6.74145508 16.43945312 C-7.1567749 16.95443359 -7.57209473 17.46941406 -8 18 C-8.99 18 -9.98 18 -11 18 C-9.92664408 15.74474655 -8.84192442 13.49624452 -7.75 11.25 C-7.44964844 10.61578125 -7.14929688 9.9815625 -6.83984375 9.328125 C-5.00635455 5.58312578 -3.14112739 2.75196117 0 0 Z " fill="#EDC09E" transform="translate(212,324)"/>
<path d="M0 0 C0.66 0.33 1.32 0.66 2 1 C-1.3 6.61 -4.6 12.22 -8 18 C-8.66 17.67 -9.32 17.34 -10 17 C-8.34564465 10.54801415 -4.70204136 4.70204136 0 0 Z " fill="#EDC09D" transform="translate(223,305)"/>
<path d="M0 0 C0.66 0.33 1.32 0.66 2 1 C-1.3 6.61 -4.6 12.22 -8 18 C-8.66 17.67 -9.32 17.34 -10 17 C-8.34564465 10.54801415 -4.70204136 4.70204136 0 0 Z " fill="#ECC09D" transform="translate(188,286)"/>
<path d="M0 0 C0.66 0.33 1.32 0.66 2 1 C0.57054558 3.46333655 -0.86801698 5.92049863 -2.3125 8.375 C-2.71662109 9.07367188 -3.12074219 9.77234375 -3.53710938 10.4921875 C-3.93349609 11.1625 -4.32988281 11.8328125 -4.73828125 12.5234375 C-5.28029175 13.450354 -5.28029175 13.450354 -5.83325195 14.39599609 C-7 16 -7 16 -10 18 C-9.40981556 13.63425206 -7.7973902 10.52282919 -5.5625 6.75 C-4.94503906 5.69296875 -4.32757813 4.6359375 -3.69140625 3.546875 C-2 1 -2 1 0 0 Z " fill="#EEC19E" transform="translate(146,279)"/>
<path d="M0 0 C0.66 0.33 1.32 0.66 2 1 C1.06981474 2.46300982 0.13055973 3.92025579 -0.8125 5.375 C-1.33457031 6.18710937 -1.85664063 6.99921875 -2.39453125 7.8359375 C-4 10 -4 10 -7 12 C-5.63855967 6.80177328 -3.53269829 3.90456127 0 0 Z " fill="#EFC29F" transform="translate(173,312)"/>
<path d="M0 0 C0.66 0.33 1.32 0.66 2 1 C0.02 3.31 -1.96 5.62 -4 8 C-4 4.09161134 -2.49432124 2.88405893 0 0 Z " fill="#EDC09D" transform="translate(243,350)"/>
</svg>
